<?xml version="1.0" encoding="utf-8"?>
<!-- Generator: Adobe Illustrator 22.0.0, SVG Export Plug-In . SVG Version: 6.00 Build 0)  -->
<svg version="1.1" xmlns="http://www.w3.org/2000/svg" xmlns:xlink="http://www.w3.org/1999/xlink" x="0px" y="0px"
	 viewBox="0 0 500 500" style="enable-background:new 0 0 500 500;" xml:space="preserve">
<style type="text/css">
	.st0{fill:#FFFFFF;}
	.st1{fill:#0E152D;}
	.st2{fill:#1481BD;}
	.st3{fill:#195FAC;}
	.st4{fill:#3A3D3F;}
</style>
<g id="Layer_4">
	<rect class="st0" width="500" height="500"/>
	<rect class="st0" width="500" height="500"/>
</g>
<g id="Layer_3">
</g>
<g id="Layer_1">
	<g>
		<g>
			<path class="st1" d="M833.3,293.5v-30.7h10.5c9.6,0,15.8,6.7,15.8,15.4c0,8.8-6.2,15.3-15.8,15.3L833.3,293.5L833.3,293.5z
				 M855.6,278.2c0-6.6-4.2-12-11.8-12h-6.7v23.9h6.7C851.2,290.1,855.6,284.7,855.6,278.2z"/>
			<path class="st1" d="M884.1,293.5l-11.7-13.8l-3.1,3.5v10.3h-3.8v-30.7h3.8v15.9l13.6-15.9h4.8l-12.8,14.6l14,16.2h-4.8V293.5z"
				/>
			<path class="st2" d="M914.9,293.5L897,269v24.5h-3.8v-30.7h3.9l17.7,24v-24h3.8v30.7H914.9z"/>
			<path class="st2" d="M925.8,293.5v-30.7H946v3.4h-16.3v9.9h16v3.4h-16v10.6H946v3.4L925.8,293.5L925.8,293.5z"/>
			<path class="st2" d="M975.5,293.5l-6.8-24.8l-6.8,24.8h-4.1l-8.8-30.7h4.2l6.8,25.6l7.1-25.6h3.2l7,25.6l6.8-25.6h4.3l-8.8,30.7
				H975.5z"/>
			<path class="st1" d="M1019,293.5v-25.9l-10.4,25.9h-1.6l-10.5-25.9v25.9h-3.8v-30.7h5.5l9.6,23.7l9.5-23.7h5.5v30.7H1019z"/>
			<path class="st1" d="M1030,293.5v-30.7h20.1v3.4h-16.3v9.9h16v3.4h-16v10.6h16.3v3.4L1030,293.5L1030,293.5z"/>
			<path class="st1" d="M1056.2,293.5v-30.7h10.5c9.6,0,15.8,6.7,15.8,15.4c0,8.8-6.2,15.3-15.8,15.3L1056.2,293.5L1056.2,293.5z
				 M1078.5,278.2c0-6.6-4.2-12-11.8-12h-6.7v23.9h6.7C1074.2,290.1,1078.5,284.7,1078.5,278.2z"/>
			<path class="st1" d="M1088.5,293.5v-30.7h3.8v30.7H1088.5z"/>
			<path class="st1" d="M1121.4,293.5l-2.7-6.9h-15.3l-2.7,6.9h-4.4l12.4-30.7h4.7l12.4,30.7H1121.4z M1111,266.7l-6.5,16.6h13
				L1111,266.7z"/>
		</g>
		<g>
			<path class="st3" d="M759.4,277.5l-6.6,5.8v-9.4l6.6-6.2V277.5z"/>
			<path class="st3" d="M777.7,255.4h9.2l4.4,5.9h-18L777.7,255.4z"/>
			<path class="st2" d="M752.7,283.3V274l23,12.1v9.3l-23,12v-9.3l14.3-7.5L752.7,283.3z"/>
			<path class="st3" d="M775.8,286.1v9.3l-23,12v-9.3l14.3-7.5L775.8,286.1z"/>
			<path class="st2" d="M777.7,255.4l4.3-6.5l4.8,6.5v52h-9.2v-52H777.7z"/>
			<path class="st2" d="M777.7,255.4l4.3-6.5l4.8,6.5l4.4,5.9l-9.2-7.8l-8.8,7.8L777.7,255.4z"/>
			<path class="st3" d="M797.6,290.6l14.3,7.5v9.3l-23-12v-9.3l23-12.1v9.3L797.6,290.6z"/>
			<path class="st2" d="M797.6,290.6l14.3,7.5v9.3l-23-12v-9.3L797.6,290.6z"/>
			<path class="st2" d="M752.7,296.1l-4.9-4.3v10.8l4.9,4.8V296.1z"/>
			<path class="st3" d="M811.9,307.4l4.9-4.8v-10.8l-4.9,4.3V307.4z"/>
			<path class="st2" d="M805.3,267.8l6.6,6.2v9.4l-6.6-5.8V267.8z"/>
		</g>
	</g>
	<g>
		<g>
			<path class="st2" d="M311.3,198.9v23.9h9.1v58.1c0,38.7-31.5,70.3-70.3,70.3c-38.7,0-70.3-31.5-70.3-70.3v-58.1h7.8v-23.9h-31.7
				v82c0,51.9,42.3,94.2,94.2,94.2s94.2-42.3,94.2-94.2v-82H311.3z"/>
			<rect x="238.1" y="363.1" class="st2" width="23.9" height="46.1"/>
			<rect x="204.4" y="397.3" class="st2" width="91.4" height="23.9"/>
			<path class="st4" d="M250.1,337.4L250.1,337.4c-31.1,0-56.4-25.2-56.4-56.4V135.2c0-31.1,25.2-56.4,56.4-56.4h0
				c31.1,0,56.4,25.2,56.4,56.4v145.8C306.4,312.2,281.2,337.4,250.1,337.4z"/>
			<g>
				<rect x="193.7" y="131.1" class="st0" width="42.6" height="7.9"/>
				<rect x="193.7" y="150.2" class="st0" width="42.6" height="7.9"/>
				<rect x="193.7" y="169.3" class="st0" width="42.6" height="7.9"/>
				<rect x="193.7" y="188.4" class="st0" width="42.6" height="7.9"/>
			</g>
			<g>
				<rect x="263.8" y="131.1" class="st0" width="42.6" height="7.9"/>
				<rect x="263.8" y="150.2" class="st0" width="42.6" height="7.9"/>
				<rect x="263.8" y="169.3" class="st0" width="42.6" height="7.9"/>
				<rect x="263.8" y="188.4" class="st0" width="42.6" height="7.9"/>
			</g>
		</g>
	</g>
</g>
<g id="Layer_2">
	<g id="XMLID_4_">
		<g id="XMLID_5_">
			<g id="XMLID_9_">
				<path id="XMLID_10_" class="st2" d="M82.4,421V78.1h73.1V103h-46.6v294h46.6V421H82.4z"/>
			</g>
			<g id="XMLID_6_">
				<path id="XMLID_7_" class="st2" d="M416.7,78.1V421h-73.1v-24.9h44.6V103h-44.6V78.1H416.7z"/>
			</g>
		</g>
	</g>
</g>
</svg>
